control3min_grf.mot
version=1
nRows=30
nColumns 19
inDegrees=yes
endheader
time	1_ground_force_vx	1_ground_force_vy	1_ground_force_vz	1_ground_force_px	1_ground_force_py	1_ground_force_pz	1_ground_torque_x	1_ground_torque_y	1_ground_torque_z	2_ground_force_vx	2_ground_force_vy	2_ground_force_vz	2_ground_force_px	2_ground_force_py	2_ground_force_pz	2_ground_torque_x	2_ground_torque_y	2_ground_torque_z
            0.005000	           -3.083667	          442.209249	          -44.366148	           -0.184914	            0.006323	           -0.426513	           -0.007958	            1.141165	           -0.114491	          -14.088444	          456.285981	           50.063952	           -0.155653	            0.006110	           -0.750373	            0.019717	           -0.638567	           -0.070064
            0.005500	           -3.081349	          438.240652	          -43.741170	           -0.185304	            0.006323	           -0.426629	           -0.007650	            1.088078	           -0.108602	          -13.790435	          451.502168	           49.202043	           -0.155600	            0.006110	           -0.750324	            0.018636	           -0.610158	           -0.066491
            0.006000	           -2.942497	          435.355051	          -43.432884	           -0.185079	            0.006322	           -0.426266	           -0.006744	            0.997739	           -0.099539	          -13.114139	          445.797604	           48.712114	           -0.155085	            0.006111	           -0.750186	            0.017632	           -0.599384	           -0.065494
            0.006500	           -2.666176	          430.307076	          -43.317645	           -0.185052	            0.006324	           -0.426731	           -0.006156	            0.993578	           -0.100020	          -12.774555	          442.486811	           47.949298	           -0.155224	            0.006111	           -0.750365	            0.018374	           -0.636424	           -0.068965
            0.007000	           -2.526314	          426.879136	          -42.644830	           -0.184823	            0.006321	           -0.426192	           -0.005946	            1.004667	           -0.100365	          -12.479019	          438.438054	           47.512370	           -0.155117	            0.006111	           -0.750240	            0.017646	           -0.619985	           -0.067186
            0.007500	           -2.112078	          423.452368	          -42.247841	           -0.184828	            0.006322	           -0.426246	           -0.005095	            1.021483	           -0.101913	          -12.229045	          434.021181	           46.980292	           -0.155070	            0.006111	           -0.750299	            0.017501	           -0.621129	           -0.067234
            0.008000	           -2.202437	          419.305287	          -42.036108	           -0.184516	            0.006322	           -0.426437	           -0.004830	            0.919608	           -0.092192	          -12.119765	          429.604973	           46.119777	           -0.155187	            0.006111	           -0.750225	            0.018907	           -0.670195	           -0.071948
            0.008500	           -1.650328	          414.616520	          -41.599012	           -0.184376	            0.006322	           -0.426423	           -0.004101	            1.030296	           -0.103371	          -11.446853	          424.821675	           45.492349	           -0.154957	            0.006111	           -0.749954	            0.016127	           -0.598523	           -0.064093
            0.009000	           -1.602233	          411.008463	          -40.972602	           -0.184092	            0.006324	           -0.426717	           -0.003832	            0.983106	           -0.098004	          -11.104570	          420.773924	           44.820761	           -0.154888	            0.006111	           -0.750042	            0.015559	           -0.589553	           -0.062799
            0.009500	           -1.600502	          407.761714	          -40.527956	           -0.184218	            0.006322	           -0.426238	           -0.003681	            0.937807	           -0.093210	          -10.622340	          416.910319	           44.290554	           -0.154984	            0.006111	           -0.750078	            0.014984	           -0.588096	           -0.062477
            0.010000	           -1.644675	          402.352556	          -40.275896	           -0.184046	            0.006325	           -0.427109	           -0.003557	            0.870194	           -0.087107	          -10.323543	          411.941361	           43.709557	           -0.154753	            0.006110	           -0.749666	            0.013240	           -0.528300	           -0.056056
            0.010500	           -1.413729	          399.105852	          -39.831819	           -0.183849	            0.006323	           -0.426576	           -0.003145	            0.887867	           -0.088611	           -9.888746	          408.261058	           43.367740	           -0.154749	            0.006112	           -0.750243	            0.012553	           -0.518269	           -0.055053
            0.011000	           -1.320279	          395.678825	          -39.388174	           -0.183790	            0.006322	           -0.426349	           -0.002960	            0.887212	           -0.088318	           -9.591922	          403.844354	           42.835641	           -0.154767	            0.006112	           -0.750024	            0.014241	           -0.599578	           -0.063597
            0.011500	           -0.906333	          391.351546	          -39.178473	           -0.183920	            0.006323	           -0.426583	           -0.002021	            0.872644	           -0.087361	           -9.245713	          398.692261	           42.019327	           -0.154570	            0.006112	           -0.750027	            0.013817	           -0.595824	           -0.062796
            0.012000	           -0.858954	          387.924964	          -38.826426	           -0.183771	            0.006321	           -0.426023	           -0.001896	            0.856117	           -0.085687	           -9.045226	          395.011614	           41.536825	           -0.154769	            0.006111	           -0.749774	            0.012163	           -0.531168	           -0.055854
            0.012500	           -0.673753	          384.137424	          -38.384554	           -0.183657	            0.006321	           -0.426043	           -0.001475	            0.840942	           -0.084030	           -8.699620	          390.043160	           40.861951	           -0.154318	            0.006111	           -0.749525	            0.011473	           -0.514365	           -0.053886
            0.013000	           -0.442709	          380.349954	          -37.942796	           -0.183641	            0.006321	           -0.426111	           -0.000932	            0.800608	           -0.079867	           -8.214026	          385.258516	           40.422316	           -0.154427	            0.006112	           -0.749943	            0.010847	           -0.508765	           -0.053381
            0.013500	           -0.624119	          375.841280	          -37.503106	           -0.183726	            0.006320	           -0.425912	           -0.001260	            0.758542	           -0.075691	           -8.109939	          382.314490	           39.848626	           -0.154482	            0.006112	           -0.749938	            0.009728	           -0.458587	           -0.047799
            0.014000	           -0.210275	          373.316264	          -37.193956	           -0.183751	            0.006319	           -0.425518	           -0.000414	            0.735059	           -0.073235	           -7.811909	          377.530448	           39.033645	           -0.154230	            0.006112	           -0.749621	            0.010631	           -0.513751	           -0.053118
            0.014500	           -0.346037	          368.627757	          -36.846864	           -0.183586	            0.006319	           -0.425708	           -0.000714	            0.760474	           -0.076015	           -7.466947	          372.745967	           38.406356	           -0.154032	            0.006113	           -0.749700	            0.010713	           -0.534798	           -0.055104
            0.015000	            0.251850	          364.299530	          -36.408335	           -0.183430	            0.006320	           -0.425873	            0.000550	            0.795937	           -0.079546	           -7.265070	          368.696537	           38.063324	           -0.154412	            0.006113	           -0.750053	            0.009622	           -0.488323	           -0.050413
            0.015500	            0.481753	          361.775461	          -36.328014	           -0.183321	            0.006317	           -0.425236	            0.001014	            0.761216	           -0.076438	           -7.109419	          364.463192	           37.625800	           -0.154334	            0.006112	           -0.749700	            0.009564	           -0.490276	           -0.050614
            0.016000	            0.346592	          356.905736	          -35.752419	           -0.183233	            0.006319	           -0.425486	            0.000742	            0.764547	           -0.076587	           -6.486016	          360.416289	           37.001020	           -0.154100	            0.006113	           -0.749750	            0.007903	           -0.439139	           -0.045083
            0.016500	            0.348812	          353.477906	          -35.125123	           -0.183411	            0.006319	           -0.425572	            0.000674	            0.683126	           -0.067882	           -6.331071	          356.367359	           36.470296	           -0.153995	            0.006113	           -0.749743	            0.008493	           -0.478072	           -0.048925
            0.017000	            0.855078	          348.789129	          -34.687913	           -0.183052	            0.006319	           -0.425597	            0.001683	            0.686632	           -0.068287	           -5.941773	          352.318438	           36.174112	           -0.154018	            0.006113	           -0.749687	            0.007221	           -0.428162	           -0.043961
            0.017500	            0.673000	          344.822266	          -34.475179	           -0.183150	            0.006319	           -0.425569	            0.001327	            0.679687	           -0.067955	           -5.739355	          348.085872	           35.548855	           -0.154199	            0.006113	           -0.749798	            0.007282	           -0.441664	           -0.045106
            0.018000	            1.087515	          340.494004	          -34.036195	           -0.182904	            0.006321	           -0.425966	            0.002147	            0.672343	           -0.067208	           -5.631383	          344.037838	           34.736582	           -0.153935	            0.006114	           -0.749793	            0.007459	           -0.455666	           -0.046007
            0.018500	            0.997542	          337.968104	          -33.542378	           -0.182698	            0.006316	           -0.424901	            0.002043	            0.692326	           -0.068711	           -5.237413	          338.699704	           34.482727	           -0.153818	            0.006112	           -0.749304	            0.006703	           -0.433481	           -0.044132
            0.019000	            1.229044	          332.918350	          -33.014319	           -0.182586	            0.006318	           -0.425260	            0.002449	            0.663342	           -0.065781	           -5.083173	          334.835249	           33.858804	           -0.153860	            0.006114	           -0.749675	            0.007099	           -0.467644	           -0.047289
            0.019500	            1.505509	          328.951379	          -32.756871	           -0.182791	            0.006320	           -0.425846	            0.003096	            0.676580	           -0.067374	           -5.161046	          330.416355	           33.561506	           -0.153536	            0.006114	           -0.749522	            0.005139	           -0.329024	           -0.033420
